<?xml version="1.0" encoding="UTF-8"?>
<svg xmlns="http://www.w3.org/2000/svg" viewBox="0 0 495 450" width="495" height="450" role="img" aria-label="A Pollo logo scontornato">
  <title>A Pollo logo scontornato</title>
  <g fill-rule="evenodd" clip-rule="evenodd">
    <path fill="#FFFFFF" d="M 265.0 68.0 L 232.0 68.0 L 231.0 69.0 L 219.0 70.0 L 199.0 78.0 L 190.0 84.0 L 179.0 94.0 L 169.0 108.0 L 161.0 128.0 L 160.0 140.0 L 159.0 141.0 L 159.0 190.0 L 238.0 190.0 L 250.0 185.0 L 259.0 177.0 L 264.0 168.0 L 266.0 161.0 L 266.0 69.0 Z
M 449.0 232.0 L 442.0 234.0 L 435.0 238.0 L 431.0 242.0 L 426.0 251.0 L 426.0 256.0 L 425.0 257.0 L 425.0 345.0 L 429.0 356.0 L 439.0 365.0 L 446.0 368.0 L 461.0 368.0 L 473.0 362.0 L 478.0 356.0 L 482.0 347.0 L 482.0 254.0 L 478.0 244.0 L 471.0 237.0 L 466.0 234.0 L 459.0 232.0 Z
M 236.0 232.0 L 225.0 236.0 L 217.0 244.0 L 213.0 255.0 L 213.0 346.0 L 219.0 359.0 L 228.0 366.0 L 234.0 368.0 L 248.0 368.0 L 258.0 364.0 L 265.0 357.0 L 269.0 349.0 L 269.0 344.0 L 270.0 343.0 L 270.0 257.0 L 266.0 245.0 L 260.0 238.0 L 251.0 233.0 Z
M 31.0 233.0 L 23.0 237.0 L 17.0 243.0 L 14.0 248.0 L 12.0 255.0 L 12.0 368.0 L 33.0 368.0 L 33.0 329.0 L 34.0 328.0 L 45.0 328.0 L 48.0 330.0 L 48.0 368.0 L 69.0 368.0 L 69.0 255.0 L 68.0 251.0 L 64.0 243.0 L 57.0 236.0 L 46.0 232.0 Z
M 135.0 232.0 L 135.0 368.0 L 156.0 368.0 L 156.0 329.0 L 157.0 328.0 L 167.0 328.0 L 173.0 326.0 L 181.0 321.0 L 187.0 314.0 L 192.0 301.0 L 192.0 259.0 L 187.0 246.0 L 178.0 237.0 L 172.0 234.0 L 164.0 232.0 Z
M 291.0 232.0 L 290.0 233.0 L 290.0 368.0 L 337.0 368.0 L 337.0 348.0 L 336.0 347.0 L 312.0 347.0 L 311.0 346.0 L 311.0 232.0 Z
M 358.0 232.0 L 358.0 368.0 L 404.0 368.0 L 405.0 364.0 L 404.0 361.0 L 404.0 353.0 L 405.0 352.0 L 404.0 350.0 L 405.0 349.0 L 403.0 347.0 L 380.0 347.0 L 379.0 346.0 L 379.0 233.0 L 378.0 232.0 Z
M 238.0 253.0 L 245.0 253.0 L 249.0 257.0 L 249.0 343.0 L 245.0 347.0 L 237.0 347.0 L 234.0 344.0 L 233.0 341.0 L 234.0 339.0 L 233.0 338.0 L 233.0 260.0 L 235.0 255.0 Z
M 450.0 253.0 L 457.0 253.0 L 461.0 257.0 L 461.0 343.0 L 457.0 347.0 L 450.0 347.0 L 446.0 342.0 L 446.0 258.0 Z
M 37.0 253.0 L 44.0 253.0 L 48.0 257.0 L 48.0 306.0 L 47.0 307.0 L 34.0 307.0 L 33.0 306.0 L 33.0 257.0 Z
M 157.0 253.0 L 163.0 253.0 L 167.0 255.0 L 171.0 261.0 L 171.0 299.0 L 170.0 302.0 L 164.0 307.0 L 157.0 307.0 L 156.0 306.0 L 156.0 254.0 Z"/>
    <path fill="#C53A45" d="M 329.0 68.0 L 327.0 69.0 L 275.0 69.0 L 274.0 70.0 L 274.0 166.0 L 276.0 170.0 L 276.0 173.0 L 279.0 178.0 L 286.0 185.0 L 295.0 189.0 L 298.0 189.0 L 299.0 190.0 L 308.0 190.0 L 309.0 189.0 L 313.0 189.0 L 322.0 184.0 L 327.0 179.0 L 331.0 173.0 L 333.0 167.0 L 333.0 163.0 L 334.0 162.0 L 333.0 159.0 L 333.0 152.0 L 331.0 149.0 L 330.0 145.0 L 323.0 137.0 L 315.0 132.0 L 309.0 130.0 L 276.0 130.0 L 275.0 128.0 L 332.0 71.0 L 332.0 69.0 Z
M 256.0 40.0 L 242.0 27.0 L 227.0 19.0 L 215.0 15.0 L 212.0 15.0 L 211.0 14.0 L 195.0 12.0 L 193.0 15.0 L 195.0 18.0 L 195.0 21.0 L 197.0 26.0 L 197.0 32.0 L 195.0 34.0 L 186.0 38.0 L 182.0 42.0 L 180.0 42.0 L 180.0 43.0 L 170.0 53.0 L 164.0 64.0 L 164.0 67.0 L 162.0 70.0 L 162.0 74.0 L 160.0 80.0 L 160.0 110.0 L 162.0 109.0 L 163.0 106.0 L 173.0 92.0 L 184.0 81.0 L 192.0 75.0 L 199.0 72.0 L 203.0 69.0 L 208.0 68.0 L 214.0 65.0 L 217.0 65.0 L 222.0 63.0 L 227.0 63.0 L 228.0 62.0 L 263.0 62.0 L 265.0 60.0 L 265.0 58.0 L 262.0 52.0 L 262.0 50.0 L 260.0 48.0 Z
M 114.0 290.0 L 91.0 290.0 L 89.0 292.0 L 89.0 316.0 L 90.0 317.0 L 91.0 317.0 L 94.0 313.0 L 95.0 313.0 L 98.0 310.0 L 99.0 310.0 L 99.0 309.0 L 115.0 293.0 L 115.0 291.0 Z
M 329.0 422.0 L 323.0 420.0 L 317.0 423.0 L 317.0 424.0 L 315.0 426.0 L 315.0 429.0 L 316.0 430.0 L 316.0 434.0 L 319.0 437.0 L 327.0 437.0 L 331.0 433.0 L 331.0 425.0 L 329.0 423.0 Z
M 297.0 422.0 L 294.0 427.0 L 294.0 432.0 L 295.0 434.0 L 298.0 437.0 L 306.0 437.0 L 310.0 433.0 L 310.0 427.0 L 309.0 426.0 L 309.0 424.0 L 305.0 421.0 L 299.0 421.0 Z
M 341.0 420.0 L 338.0 422.0 L 338.0 437.0 L 347.0 437.0 L 350.0 435.0 L 352.0 431.0 L 351.0 426.0 L 348.0 422.0 L 344.0 421.0 L 343.0 420.0 Z
M 251.0 421.0 L 250.0 422.0 L 250.0 436.0 L 252.0 435.0 L 252.0 430.0 L 253.0 429.0 L 255.0 429.0 L 260.0 436.0 L 260.0 437.0 L 262.0 437.0 L 263.0 436.0 L 263.0 422.0 L 261.0 423.0 L 261.0 427.0 L 259.0 429.0 L 258.0 429.0 L 254.0 424.0 L 254.0 423.0 L 252.0 421.0 Z
M 300.0 423.0 L 304.0 423.0 L 308.0 427.0 L 307.0 433.0 L 304.0 435.0 L 300.0 435.0 L 297.0 432.0 L 297.0 427.0 Z
M 322.0 423.0 L 326.0 423.0 L 329.0 428.0 L 329.0 431.0 L 325.0 436.0 L 320.0 434.0 L 318.0 432.0 L 318.0 427.0 Z
M 215.0 422.0 L 214.0 435.0 L 215.0 436.0 L 217.0 436.0 L 217.0 434.0 L 219.0 432.0 L 221.0 432.0 L 224.0 436.0 L 224.0 437.0 L 226.0 437.0 L 226.0 435.0 L 223.0 430.0 L 223.0 426.0 L 224.0 424.0 L 226.0 423.0 L 226.0 422.0 L 224.0 422.0 L 219.0 426.0 L 218.0 426.0 L 217.0 425.0 L 217.0 423.0 Z
M 164.0 422.0 L 164.0 437.0 L 166.0 436.0 L 167.0 432.0 L 170.0 430.0 L 172.0 430.0 L 175.0 433.0 L 175.0 435.0 L 177.0 436.0 L 177.0 422.0 L 175.0 423.0 L 175.0 425.0 L 172.0 428.0 L 169.0 428.0 L 167.0 426.0 L 166.0 422.0 Z
M 342.0 423.0 L 345.0 423.0 L 349.0 427.0 L 349.0 431.0 L 348.0 433.0 L 345.0 435.0 L 342.0 435.0 L 340.0 433.0 L 340.0 425.0 Z
M 197.0 421.0 L 193.0 425.0 L 193.0 432.0 L 194.0 433.0 L 194.0 435.0 L 196.0 437.0 L 205.0 437.0 L 207.0 435.0 L 207.0 434.0 L 204.0 434.0 L 203.0 435.0 L 199.0 435.0 L 197.0 434.0 L 195.0 431.0 L 195.0 427.0 L 199.0 423.0 L 203.0 423.0 L 205.0 425.0 L 207.0 425.0 L 207.0 423.0 L 202.0 420.0 Z
M 156.0 422.0 L 151.0 420.0 L 150.0 421.0 L 147.0 421.0 L 143.0 425.0 L 143.0 432.0 L 144.0 433.0 L 144.0 435.0 L 146.0 437.0 L 155.0 437.0 L 157.0 435.0 L 157.0 434.0 L 154.0 434.0 L 152.0 436.0 L 149.0 435.0 L 145.0 430.0 L 145.0 427.0 L 149.0 423.0 L 153.0 423.0 L 155.0 425.0 L 157.0 425.0 L 157.0 423.0 Z
M 234.0 421.0 L 234.0 422.0 L 233.0 423.0 L 233.0 435.0 L 234.0 436.0 L 234.0 437.0 L 239.0 437.0 L 239.0 436.0 L 236.0 433.0 L 236.0 432.0 L 238.0 430.0 L 241.0 430.0 L 241.0 429.0 L 240.0 428.0 L 238.0 428.0 L 236.0 426.0 L 236.0 425.0 L 238.0 423.0 L 241.0 423.0 L 241.0 421.0 Z
M 286.0 420.0 L 285.0 420.0 L 284.0 421.0 L 281.0 421.0 L 279.0 423.0 L 279.0 435.0 L 280.0 436.0 L 281.0 436.0 L 281.0 434.0 L 283.0 431.0 L 285.0 431.0 L 286.0 430.0 L 287.0 430.0 L 287.0 429.0 L 286.0 428.0 L 284.0 428.0 L 282.0 426.0 L 282.0 424.0 L 283.0 423.0 L 286.0 423.0 L 287.0 422.0 L 287.0 421.0 Z
M 187.0 422.0 L 185.0 422.0 L 184.0 423.0 L 184.0 435.0 L 185.0 436.0 L 186.0 436.0 L 186.0 435.0 L 187.0 434.0 Z"/>
  </g>
</svg>
